HIERARCHY
ROOT root
{
	OFFSET 0.000000 0.000000 0.000000
	CHANNELS 6 Xposition Yposition Zposition Zrotation Yrotation Xrotation
	JOINT lhip
	{
		OFFSET 0.058581 -0.082280 -0.017664
		CHANNELS 3 Zrotation Yrotation Xrotation
		JOINT lknee
		{
			OFFSET 0.043451 -0.386469 0.008037
			CHANNELS 3 Zrotation Yrotation Xrotation
			JOINT lankle
			{
				OFFSET -0.014790 -0.426874 -0.037428
				CHANNELS 3 Zrotation Yrotation Xrotation
				JOINT ltoe
				{
					OFFSET 0.041054 -0.060286 0.122042
					CHANNELS 3 Zrotation Yrotation Xrotation
					End Site
					{
						OFFSET 0.000000 0.000000 0.000000
					}
				}
			}
		}
	}
	JOINT rhip
	{
		OFFSET -0.060310 -0.090513 -0.013543
		CHANNELS 3 Zrotation Yrotation Xrotation
		JOINT rknee
		{
			OFFSET -0.043257 -0.383688 -0.004843
			CHANNELS 3 Zrotation Yrotation Xrotation
			JOINT rankle
			{
				OFFSET 0.019056 -0.420046 -0.034562
				CHANNELS 3 Zrotation Yrotation Xrotation
				JOINT rtoe
				{
					OFFSET -0.034840 -0.062106 0.130323
					CHANNELS 3 Zrotation Yrotation Xrotation
					End Site
					{
						OFFSET 0.000000 0.000000 0.000000
					}
				}
			}
		}
	}
	JOINT lowerback
	{
		OFFSET 0.004439 0.124404 -0.038385
		CHANNELS 3 Zrotation Yrotation Xrotation
		JOINT upperback
		{
			OFFSET 0.004488 0.137956 0.026820
			CHANNELS 3 Zrotation Yrotation Xrotation
			JOINT chest
			{
				OFFSET -0.002265 0.056032 0.002855
				CHANNELS 3 Zrotation Yrotation Xrotation
				JOINT lowerneck
				{
					OFFSET -0.013390 0.211636 -0.033468
					CHANNELS 3 Zrotation Yrotation Xrotation
					JOINT upperneck
					{
						OFFSET 0.010113 0.088937 0.050410
						CHANNELS 3 Zrotation Yrotation Xrotation
						End Site
						{
							OFFSET 0.000000 0.000000 0.000000
						}
					}
				}
				JOINT lclavicle
				{
					OFFSET 0.071702 0.114000 -0.018898
					CHANNELS 3 Zrotation Yrotation Xrotation
					JOINT lshoulder
					{
						OFFSET 0.122921 0.045205 -0.019046
						CHANNELS 3 Zrotation Yrotation Xrotation
						JOINT lelbow
						{
							OFFSET 0.255332 -0.015649 -0.022946
							CHANNELS 3 Zrotation Yrotation Xrotation
							JOINT lwrist
							{
								OFFSET 0.265709 0.012698 -0.007375
								CHANNELS 3 Zrotation Yrotation Xrotation
								End Site
								{
									OFFSET 0.000000 0.000000 0.000000
								}
							}
						}
					}
				}
				JOINT rclavicle
				{
					OFFSET -0.082954 0.112472 -0.023707
					CHANNELS 3 Zrotation Yrotation Xrotation
					JOINT rshoulder
					{
						OFFSET -0.113228 0.046853 -0.008472
						CHANNELS 3 Zrotation Yrotation Xrotation
						JOINT relbow
						{
							OFFSET -0.260127 -0.014369 -0.031269
							CHANNELS 3 Zrotation Yrotation Xrotation
							JOINT rwrist
							{
								OFFSET -0.269108 0.006794 -0.006027
								CHANNELS 3 Zrotation Yrotation Xrotation
								End Site
								{
									OFFSET 0.000000 0.000000 0.000000
								}
							}
						}
					}
				}
			}
		}
	}
}
MOTION
Frames: 14
Frame Time: 0.033333
0.039364 0.465027 1.003285 174.369512 -0.532852 86.232319 6.907222 3.446554 9.440203 -5.027212 -4.709705 -3.612774 -2.945935 13.671153 -3.278455 0.000000 -0.000000 0.000000 -4.498543 0.098815 3.771640 5.002522 5.292496 4.947849 4.384894 -6.007839 -6.029059 0.000000 -0.000000 0.000000 1.008646 -2.073136 3.961089 -1.030200 -0.392904 -1.115771 -0.980929 1.577764 1.550170 -0.645192 -1.392226 1.156569 4.743036 -0.265948 0.425859 -10.070212 13.330718 -9.574702 -7.199639 -1.012389 -14.986696 82.746191 -51.232613 -76.686573 -23.157926 -10.637933 5.686531 12.012394 -8.751845 1.796837 27.986835 -16.755203 28.439133 127.819612 57.009906 153.291820 25.865783 28.418086 -19.614876 
0.039249 0.465063 1.003283 174.379481 -0.540911 86.223076 6.904707 3.459325 9.466471 -5.039399 -4.714514 -3.634330 -2.936277 13.645983 -3.289518 0.000000 -0.000000 0.000000 -4.522225 0.082598 3.776436 5.011380 5.296315 4.960279 4.374863 -6.018032 -6.034507 0.000000 -0.000000 0.000000 0.995460 -2.074751 3.967314 -1.028021 -0.386006 -1.095820 -0.970843 1.579050 1.546484 -0.629385 -1.424997 1.082963 4.754674 -0.235898 0.407188 -10.092754 13.347535 -9.566635 -7.227905 -0.996786 -14.950831 82.715621 -51.253788 -76.757863 -22.941310 -10.627035 5.622300 12.026558 -8.749352 1.793068 27.975288 -16.746081 28.441093 127.840598 57.022863 153.262845 25.851574 28.407751 -19.554646 
0.039144 0.465007 1.003299 174.399304 -0.545763 86.223761 6.898964 3.474778 9.465639 -5.050964 -4.715245 -3.639282 -2.932053 13.624617 -3.302079 0.000000 -0.000000 0.000000 -4.528078 0.079216 3.771519 5.009310 5.299523 4.959491 4.380506 -6.038768 -6.054132 0.000000 -0.000000 0.000000 0.991371 -2.082835 3.990769 -1.029361 -0.394735 -1.108844 -0.964999 1.576446 1.568062 -0.620170 -1.452609 0.994797 4.771249 -0.219576 0.374079 -10.102763 13.368676 -9.573295 -7.239548 -0.972638 -14.906056 82.581860 -51.318639 -76.705311 -22.696853 -10.537034 5.699025 12.035429 -8.753587 1.770572 27.961445 -16.748497 28.455258 127.832567 57.019889 153.196214 25.836777 28.371031 -19.509367 
0.039028 0.464880 1.003250 174.423061 -0.544694 86.229430 6.894965 3.468143 9.429283 -5.053673 -4.682057 -3.609323 -2.937532 13.598696 -3.297034 0.000000 -0.000000 0.000000 -4.538693 0.058438 3.751330 5.012572 5.277864 4.989482 4.371088 -6.040773 -6.045873 0.000000 -0.000000 0.000000 0.979116 -2.072601 4.005791 -1.006647 -0.407395 -1.031039 -0.939894 1.593736 1.562652 -0.632922 -1.481756 0.806397 4.781725 -0.286520 0.346646 -10.108485 13.369966 -9.594287 -7.332103 -1.012188 -14.955950 82.498617 -51.310003 -76.575323 -22.680669 -10.461053 5.808729 12.019419 -8.787155 1.804689 28.012007 -16.821473 28.339903 127.950481 57.056979 153.362269 26.009864 28.439047 -19.491748 
0.039007 0.464732 1.003229 174.432807 -0.544769 86.267251 6.896645 3.458494 9.392312 -5.062238 -4.663380 -3.637170 -2.941076 13.525178 -3.258996 0.000000 -0.000000 0.000000 -4.546868 0.069864 3.717415 5.019159 5.266826 4.957314 4.380689 -6.037590 -6.039240 0.000000 -0.000000 0.000000 0.977135 -2.060582 3.976567 -1.010674 -0.393124 -1.027189 -0.928637 1.579602 1.571591 -0.616429 -1.472970 0.810663 4.783427 -0.271020 0.295697 -10.104231 13.376661 -9.590580 -7.359321 -1.078706 -14.988740 82.416505 -51.236029 -76.532354 -22.848051 -10.426947 5.876448 12.011264 -8.844993 1.768544 27.980454 -16.808720 28.368198 128.019823 57.051108 153.406053 26.050927 28.418393 -19.440727 
0.038994 0.464753 1.003229 174.426008 -0.532435 86.232996 6.910818 3.473417 9.436112 -5.062888 -4.679283 -3.634326 -2.960629 13.532544 -3.268553 0.000000 -0.000000 0.000000 -4.530797 0.067507 3.763978 5.000216 5.245869 4.954455 4.370607 -6.014607 -6.021609 0.000000 -0.000000 0.000000 0.979424 -2.067554 3.987922 -1.009326 -0.391128 -0.974574 -0.920509 1.579016 1.563066 -0.633890 -1.488319 0.834992 4.757146 -0.276058 0.358735 -10.109076 13.342300 -9.572044 -7.381957 -1.046602 -15.009021 82.536777 -51.215947 -76.551479 -22.790964 -10.378534 5.953766 11.989252 -8.785240 1.819845 28.001987 -16.815855 28.335974 128.019900 57.068733 153.444893 25.935566 28.398978 -19.488729 
0.039002 0.464744 1.003225 174.430169 -0.534134 86.263505 6.912064 3.446107 9.393018 -5.068045 -4.719261 -3.618274 -2.974328 13.561733 -3.307515 0.000000 -0.000000 0.000000 -4.530263 0.081741 3.749587 4.994721 5.265793 4.920628 4.378464 -6.020690 -6.041666 0.000000 -0.000000 0.000000 0.972101 -2.083394 3.966022 -1.014924 -0.400368 -0.984278 -0.924787 1.588601 1.568218 -0.640985 -1.493670 0.838170 4.736877 -0.284806 0.436903 -10.117652 13.362676 -9.602079 -7.401320 -1.095676 -15.040652 82.581884 -51.191381 -76.606247 -22.753203 -10.383900 5.942401 11.996885 -8.797260 1.823762 28.009646 -16.815818 28.339391 128.056660 57.096929 153.472859 26.016177 28.407251 -19.451868 
0.038991 0.464690 1.003252 174.428434 -0.534951 86.250289 6.920807 3.439338 9.382874 -5.100755 -4.708299 -3.568143 -2.975986 13.583830 -3.321467 0.000000 -0.000000 0.000000 -4.536951 0.072427 3.732083 5.014140 5.262066 4.984666 4.412642 -6.014793 -6.046905 0.000000 -0.000000 0.000000 0.975742 -2.071496 4.043173 -1.020311 -0.397217 -1.010159 -0.947507 1.560656 1.563814 -0.652531 -1.451810 0.844508 4.786343 -0.302464 0.531601 -10.126748 13.380751 -9.636766 -7.412363 -1.107865 -15.034008 82.645433 -51.173328 -76.682496 -22.582610 -10.430512 5.880573 12.027677 -8.840388 1.765809 28.010691 -16.816522 28.361378 128.092300 57.072398 153.528249 25.978473 28.323294 -19.398129 
0.039015 0.464811 1.003239 174.412119 -0.530574 86.248288 6.919347 3.450382 9.396320 -5.092595 -4.713307 -3.577463 -2.960869 13.591505 -3.308916 0.000000 -0.000000 0.000000 -4.531193 0.073948 3.739710 5.010299 5.285778 4.977857 4.417950 -6.028240 -6.042964 0.000000 -0.000000 0.000000 0.973280 -2.074663 4.047355 -1.025845 -0.391489 -1.020249 -0.947399 1.552625 1.578733 -0.645756 -1.425333 0.838016 4.804527 -0.267270 0.570198 -10.127006 13.394583 -9.643214 -7.420624 -1.112400 -15.011310 82.718366 -51.199903 -76.771587 -22.421896 -10.386013 5.903244 12.034018 -8.853340 1.754006 27.995713 -16.809607 28.382652 128.086036 57.070999 153.481514 25.917545 28.302380 -19.404737 
0.038962 0.464859 1.003239 174.410731 -0.530212 86.270505 6.914954 3.472073 9.385808 -5.085060 -4.724272 -3.596410 -2.949592 13.577607 -3.298241 0.000000 -0.000000 0.000000 -4.541779 0.073746 3.726165 5.013488 5.292275 4.967683 4.433309 -6.020379 -6.048068 0.000000 -0.000000 0.000000 0.976356 -2.070359 4.076650 -1.041036 -0.384191 -1.077302 -0.946816 1.539184 1.590302 -0.643864 -1.431858 0.842638 4.842751 -0.243481 0.593667 -10.134272 13.414254 -9.667532 -7.438662 -1.144091 -15.002475 82.777121 -51.172575 -76.828907 -22.290939 -10.330593 5.909048 12.041364 -8.890721 1.725191 27.993317 -16.836268 28.397009 128.073397 57.084458 153.446208 26.019348 28.329351 -19.424004 
0.038982 0.464953 1.003219 174.400844 -0.529090 86.271708 6.920702 3.472499 9.393873 -5.086471 -4.721888 -3.594506 -2.946559 13.582855 -3.298580 0.000000 -0.000000 0.000000 -4.537864 0.062315 3.723838 5.014663 5.291821 4.970181 4.423667 -6.017618 -6.058520 0.000000 -0.000000 0.000000 0.970891 -2.070093 4.082299 -1.038453 -0.388375 -1.070685 -0.945444 1.538319 1.594012 -0.655193 -1.430941 0.832320 4.844449 -0.251044 0.580513 -10.140017 13.431014 -9.682302 -7.435428 -1.143617 -15.013328 82.751177 -51.171979 -76.817829 -22.219765 -10.348248 5.851433 12.057106 -8.915146 1.719228 27.993659 -16.838569 28.394756 128.080440 57.084312 153.471655 25.988796 28.309857 -19.385971 
0.039019 0.465071 1.003224 174.396111 -0.539847 86.260115 6.913921 3.455597 9.392775 -5.102657 -4.739891 -3.553123 -2.956236 13.594627 -3.313808 0.000000 -0.000000 0.000000 -4.551276 0.052634 3.744030 5.024115 5.272688 4.962057 4.417636 -6.038265 -6.016717 0.000000 -0.000000 0.000000 0.953904 -2.072558 4.109927 -1.051393 -0.406870 -1.036784 -0.943841 1.526402 1.586843 -0.668098 -1.431617 0.798398 4.861612 -0.249598 0.514212 -10.172559 13.464802 -9.667219 -7.367931 -1.015105 -14.971167 83.022764 -51.157418 -77.113125 -22.010597 -10.274825 5.991656 12.082361 -8.943760 1.670533 28.028858 -16.864105 28.375191 128.115984 57.110094 153.441853 26.098258 28.296289 -19.361923 
0.039036 0.465169 1.003240 174.395493 -0.526964 86.249996 6.911798 3.436336 9.423357 -5.070976 -4.720323 -3.579187 -2.974587 13.600453 -3.304160 0.000000 -0.000000 0.000000 -4.529378 0.070577 3.791410 5.005550 5.287886 4.916277 4.416364 -6.022952 -6.036743 0.000000 -0.000000 0.000000 0.968107 -2.066377 4.136474 -1.062817 -0.404587 -1.026401 -0.938295 1.532226 1.565722 -0.668854 -1.440423 0.805151 4.840708 -0.229382 0.538063 -10.187044 13.450213 -9.670332 -7.353774 -0.999093 -14.973619 83.082655 -51.150767 -77.195337 -22.038593 -10.300402 6.108164 12.081237 -8.940201 1.674524 28.040778 -16.919791 28.374269 128.157729 57.120697 153.473377 26.133480 28.293860 -19.280145 
0.039059 0.465181 1.003210 174.399555 -0.530708 86.264768 6.916809 3.431661 9.412397 -5.079398 -4.732502 -3.580120 -2.964758 13.603496 -3.305102 0.000000 -0.000000 0.000000 -4.529475 0.063232 3.776468 5.002738 5.296900 4.916546 4.415145 -6.025426 -6.029271 0.000000 -0.000000 0.000000 0.953275 -2.062566 4.115905 -1.059269 -0.399059 -1.031877 -0.931571 1.547428 1.583343 -0.668815 -1.458935 0.826889 4.846888 -0.226463 0.532402 -10.169933 13.479679 -9.668190 -7.405823 -1.035968 -14.932528 83.114402 -51.179301 -77.267819 -21.893643 -10.284897 6.060870 12.071790 -8.959932 1.661834 28.053685 -16.905935 28.378059 128.147633 57.129482 153.441179 26.103630 28.265523 -19.269539 
